<svg id="visual" viewBox="0 0 900 600" width="900" height="600" xmlns="http://www.w3.org/2000/svg" xmlns:xlink="http://www.w3.org/1999/xlink" version="1.1"><g stroke-width="1" stroke-linejoin="bevel"><path d="M492 337L418 362L478 403Z" fill="#dc034f" stroke="#dc034f"></path><path d="M478 403L562 365L492 337Z" fill="#061b32" stroke="#061b32"></path><path d="M413 213L394 272L501 205Z" fill="#061b32" stroke="#061b32"></path><path d="M492 337L394 272L418 362Z" fill="#c10361" stroke="#c10361"></path><path d="M304 439L402 488L418 362Z" fill="#182348" stroke="#182348"></path><path d="M418 362L402 488L478 403Z" fill="#f12637" stroke="#f12637"></path><path d="M478 403L567 508L562 365Z" fill="#9f186b" stroke="#9f186b"></path><path d="M501 205L394 272L492 337Z" fill="#c10361" stroke="#c10361"></path><path d="M402 488L469 525L478 403Z" fill="#f12637" stroke="#f12637"></path><path d="M562 212L501 205L492 337Z" fill="#7b246e" stroke="#7b246e"></path><path d="M261 336L418 362L394 272Z" fill="#f12637" stroke="#f12637"></path><path d="M261 336L304 439L418 362Z" fill="#7b246e" stroke="#7b246e"></path><path d="M408 600L466 600L469 525Z" fill="#f12637" stroke="#f12637"></path><path d="M469 525L567 508L478 403Z" fill="#182348" stroke="#182348"></path><path d="M638 290L562 212L562 365Z" fill="#182348" stroke="#182348"></path><path d="M562 365L562 212L492 337Z" fill="#00101c" stroke="#00101c"></path><path d="M721 423L638 290L562 365Z" fill="#182348" stroke="#182348"></path><path d="M330 199L261 336L394 272Z" fill="#9f186b" stroke="#9f186b"></path><path d="M409 61L330 199L413 213Z" fill="#35285b" stroke="#35285b"></path><path d="M413 213L330 199L394 272Z" fill="#7b246e" stroke="#7b246e"></path><path d="M195 360L267 469L304 439Z" fill="#35285b" stroke="#35285b"></path><path d="M304 439L267 469L402 488Z" fill="#dc034f" stroke="#dc034f"></path><path d="M408 600L469 525L402 488Z" fill="#061b32" stroke="#061b32"></path><path d="M469 525L561 600L567 508Z" fill="#dc034f" stroke="#dc034f"></path><path d="M308 600L408 600L402 488Z" fill="#c10361" stroke="#c10361"></path><path d="M466 600L561 600L469 525Z" fill="#fc490b" stroke="#fc490b"></path><path d="M768 326L696 260L638 290Z" fill="#f12637" stroke="#f12637"></path><path d="M562 212L529 118L501 205Z" fill="#061b32" stroke="#061b32"></path><path d="M501 205L529 118L413 213Z" fill="#9f186b" stroke="#9f186b"></path><path d="M631 132L529 118L562 212Z" fill="#f12637" stroke="#f12637"></path><path d="M721 423L562 365L690 505Z" fill="#061b32" stroke="#061b32"></path><path d="M638 290L677 214L562 212Z" fill="#9f186b" stroke="#9f186b"></path><path d="M696 260L677 214L638 290Z" fill="#182348" stroke="#182348"></path><path d="M191 278L195 360L261 336Z" fill="#562968" stroke="#562968"></path><path d="M261 336L195 360L304 439Z" fill="#fc490b" stroke="#fc490b"></path><path d="M690 505L562 365L567 508Z" fill="#dc034f" stroke="#dc034f"></path><path d="M675 600L690 505L567 508Z" fill="#35285b" stroke="#35285b"></path><path d="M267 469L308 600L402 488Z" fill="#c10361" stroke="#c10361"></path><path d="M194 535L308 600L267 469Z" fill="#182348" stroke="#182348"></path><path d="M330 199L191 278L261 336Z" fill="#c10361" stroke="#c10361"></path><path d="M677 214L631 132L562 212Z" fill="#562968" stroke="#562968"></path><path d="M283 60L231 175L330 199Z" fill="#c10361" stroke="#c10361"></path><path d="M330 199L231 175L191 278Z" fill="#00101c" stroke="#00101c"></path><path d="M529 118L409 61L413 213Z" fill="#fc490b" stroke="#fc490b"></path><path d="M477 0L409 61L529 118Z" fill="#dc034f" stroke="#dc034f"></path><path d="M825 387L768 326L721 423Z" fill="#fc490b" stroke="#fc490b"></path><path d="M721 423L768 326L638 290Z" fill="#061b32" stroke="#061b32"></path><path d="M696 260L791 214L677 214Z" fill="#fc490b" stroke="#fc490b"></path><path d="M677 214L665 69L631 132Z" fill="#182348" stroke="#182348"></path><path d="M130 491L267 469L195 360Z" fill="#562968" stroke="#562968"></path><path d="M130 491L194 535L267 469Z" fill="#dc034f" stroke="#dc034f"></path><path d="M561 600L675 600L567 508Z" fill="#00101c" stroke="#00101c"></path><path d="M839 477L825 387L721 423Z" fill="#c10361" stroke="#c10361"></path><path d="M97 304L119 360L191 278Z" fill="#9f186b" stroke="#9f186b"></path><path d="M191 278L119 360L195 360Z" fill="#dc034f" stroke="#dc034f"></path><path d="M409 61L283 60L330 199Z" fill="#061b32" stroke="#061b32"></path><path d="M115 183L97 304L191 278Z" fill="#fc490b" stroke="#fc490b"></path><path d="M119 360L130 491L195 360Z" fill="#00101c" stroke="#00101c"></path><path d="M791 214L665 69L677 214Z" fill="#7b246e" stroke="#7b246e"></path><path d="M631 132L597 0L529 118Z" fill="#7b246e" stroke="#7b246e"></path><path d="M768 326L791 214L696 260Z" fill="#182348" stroke="#182348"></path><path d="M597 0L477 0L529 118Z" fill="#7b246e" stroke="#7b246e"></path><path d="M409 61L318 0L283 60Z" fill="#c10361" stroke="#c10361"></path><path d="M839 477L721 423L690 505Z" fill="#7b246e" stroke="#7b246e"></path><path d="M768 326L900 237L791 214Z" fill="#dc034f" stroke="#dc034f"></path><path d="M115 183L191 278L231 175Z" fill="#c10361" stroke="#c10361"></path><path d="M0 478L65 600L130 491Z" fill="#061b32" stroke="#061b32"></path><path d="M477 0L379 0L409 61Z" fill="#00101c" stroke="#00101c"></path><path d="M130 491L164 600L194 535Z" fill="#fc490b" stroke="#fc490b"></path><path d="M194 535L164 600L308 600Z" fill="#fc490b" stroke="#fc490b"></path><path d="M665 69L597 0L631 132Z" fill="#562968" stroke="#562968"></path><path d="M177 80L115 183L231 175Z" fill="#7b246e" stroke="#7b246e"></path><path d="M379 0L318 0L409 61Z" fill="#562968" stroke="#562968"></path><path d="M283 60L177 80L231 175Z" fill="#fc490b" stroke="#fc490b"></path><path d="M778 600L839 477L690 505Z" fill="#f12637" stroke="#f12637"></path><path d="M675 600L778 600L690 505Z" fill="#061b32" stroke="#061b32"></path><path d="M202 0L177 80L283 60Z" fill="#182348" stroke="#182348"></path><path d="M812 0L667 0L665 69Z" fill="#c10361" stroke="#c10361"></path><path d="M665 69L667 0L597 0Z" fill="#562968" stroke="#562968"></path><path d="M900 421L900 339L825 387Z" fill="#182348" stroke="#182348"></path><path d="M825 387L900 339L768 326Z" fill="#7b246e" stroke="#7b246e"></path><path d="M791 214L828 72L665 69Z" fill="#9f186b" stroke="#9f186b"></path><path d="M177 80L83 136L115 183Z" fill="#182348" stroke="#182348"></path><path d="M115 183L0 272L97 304Z" fill="#f12637" stroke="#f12637"></path><path d="M839 477L900 421L825 387Z" fill="#c10361" stroke="#c10361"></path><path d="M900 491L900 421L839 477Z" fill="#f12637" stroke="#f12637"></path><path d="M318 0L202 0L283 60Z" fill="#fc490b" stroke="#fc490b"></path><path d="M177 80L130 0L83 136Z" fill="#9f186b" stroke="#9f186b"></path><path d="M900 600L900 491L839 477Z" fill="#00101c" stroke="#00101c"></path><path d="M900 339L900 237L768 326Z" fill="#182348" stroke="#182348"></path><path d="M0 393L130 491L119 360Z" fill="#dc034f" stroke="#dc034f"></path><path d="M130 491L65 600L164 600Z" fill="#562968" stroke="#562968"></path><path d="M0 393L119 360L97 304Z" fill="#dc034f" stroke="#dc034f"></path><path d="M0 272L0 393L97 304Z" fill="#35285b" stroke="#35285b"></path><path d="M0 195L0 272L115 183Z" fill="#dc034f" stroke="#dc034f"></path><path d="M900 139L828 72L791 214Z" fill="#dc034f" stroke="#dc034f"></path><path d="M0 393L0 478L130 491Z" fill="#c10361" stroke="#c10361"></path><path d="M0 114L0 195L83 136Z" fill="#c10361" stroke="#c10361"></path><path d="M83 136L0 195L115 183Z" fill="#7b246e" stroke="#7b246e"></path><path d="M202 0L130 0L177 80Z" fill="#9f186b" stroke="#9f186b"></path><path d="M900 237L900 139L791 214Z" fill="#fc490b" stroke="#fc490b"></path><path d="M778 600L900 600L839 477Z" fill="#dc034f" stroke="#dc034f"></path><path d="M900 0L812 0L828 72Z" fill="#061b32" stroke="#061b32"></path><path d="M828 72L812 0L665 69Z" fill="#9f186b" stroke="#9f186b"></path><path d="M0 478L0 600L65 600Z" fill="#f12637" stroke="#f12637"></path><path d="M0 0L0 114L83 136Z" fill="#fc490b" stroke="#fc490b"></path><path d="M900 139L900 0L828 72Z" fill="#00101c" stroke="#00101c"></path><path d="M130 0L0 0L83 136Z" fill="#9f186b" stroke="#9f186b"></path></g></svg>